<svg version="1.1" xmlns="http://www.w3.org/2000/svg" xmlns:xlink="http://www.w3.org/1999/xlink" width="512px" height="510.784px" viewBox="0,0,256,255.39063"><g fill="#ffffff" fill-rule="nonzero" stroke="none" stroke-width="1" stroke-linecap="butt" stroke-linejoin="miter" stroke-miterlimit="10" stroke-dasharray="" stroke-dashoffset="0" font-family="none" font-weight="none" font-size="none" text-anchor="none" style="mix-blend-mode: normal"><g transform="translate(0.00007,-0.00052) scale(0.5,0.5)"><path d="M217.587,0c60.082,0 114.478,24.36 153.849,63.73c39.371,39.371 63.731,93.782 63.731,153.857c0,52.338 -18.484,100.353 -49.276,137.893l119.914,119.387c8.228,8.183 8.264,21.495 0.081,29.722c-8.183,8.227 -21.495,8.264 -29.722,0.081l-119.93,-119.395c-37.641,31.166 -85.957,49.892 -138.647,49.892c-60.075,0 -114.486,-24.36 -153.857,-63.731c-39.37,-39.371 -63.73,-93.767 -63.73,-153.849c0,-60.075 24.36,-114.486 63.73,-153.857c39.371,-39.37 93.782,-63.73 153.857,-63.73zM341.633,93.533c-31.737,-31.737 -75.605,-51.379 -124.046,-51.379c-48.448,0 -92.317,19.642 -124.054,51.379c-31.737,31.737 -51.379,75.606 -51.379,124.054c0,48.441 19.642,92.309 51.379,124.046c31.737,31.737 75.606,51.379 124.054,51.379c48.441,0 92.309,-19.642 124.046,-51.379c31.737,-31.737 51.379,-75.605 51.379,-124.046c0,-48.448 -19.642,-92.317 -51.379,-124.054z"></path></g></g></svg>